<svg width="32" height="34" viewBox="0 0 32 34" fill="none" xmlns="http://www.w3.org/2000/svg">
<path d="M7.13008 7.26925H29.7121C30.3649 7.26925 30.8427 7.88454 30.681 8.51697L28.7801 15.951C28.4405 17.2789 27.2442 18.2078 25.8736 18.2078H9.02537M0 1H4.65214C5.63535 1 6.47274 1.71465 6.62728 2.68564L9.6467 21.6566C9.80125 22.6276 10.6404 23.3423 11.6236 23.3423C17.7396 23.3423 21.6509 23.3423 28.203 23.3423" stroke="black" stroke-width="1.5"/>
<path d="M15.7689 30.2656C15.7689 31.5678 14.7584 32.5758 13.5695 32.5758C12.3807 32.5758 11.3701 31.5678 11.3701 30.2656C11.3701 28.9634 12.3807 27.9554 13.5695 27.9554C14.7584 27.9554 15.7689 28.9634 15.7689 30.2656Z" stroke="black" stroke-width="1.5"/>
<path d="M28.746 30.2656C28.746 31.5678 27.7354 32.5758 26.5466 32.5758C25.3577 32.5758 24.3472 31.5678 24.3472 30.2656C24.3472 28.9634 25.3577 27.9554 26.5466 27.9554C27.7354 27.9554 28.746 28.9634 28.746 30.2656Z" stroke="black" stroke-width="1.5"/>
</svg>
